<svg width="17" height="17" viewBox="0 0 17 17" fill="none" xmlns="http://www.w3.org/2000/svg">
<path d="M13.9761 7.16113L13.9789 4.16113" stroke="black" stroke-linecap="round" stroke-linejoin="round"/>
<path d="M15.4775 5.66252L12.4775 5.65967" stroke="black" stroke-linecap="round" stroke-linejoin="round"/>
<path d="M10.9813 1.6582L10.9794 3.6582" stroke="black" stroke-linecap="round" stroke-linejoin="round"/>
<path d="M11.9803 2.65913L9.98035 2.65723" stroke="black" stroke-linecap="round" stroke-linejoin="round"/>
<path d="M14.0173 9.69867C13.0354 9.97301 11.9981 9.98104 11.0121 9.72195C10.026 9.46285 9.12668 8.94596 8.40644 8.22435C7.68621 7.50275 7.17103 6.60244 6.91381 5.61589C6.65658 4.62934 6.66659 3.5921 6.9428 2.61069C5.97471 2.87915 5.09385 3.39657 4.38796 4.11141C3.68207 4.82624 3.17579 5.71355 2.91954 6.68495C2.6633 7.65634 2.66603 8.67792 2.92747 9.64793C3.1889 10.6179 3.69992 11.5025 4.40963 12.2136C5.11933 12.9246 6.00294 13.4373 6.97245 13.7006C7.94196 13.9639 8.96354 13.9686 9.93542 13.7142C10.9073 13.4598 11.7956 12.9552 12.5117 12.2506C13.2279 11.5461 13.747 10.6662 14.0173 9.69867Z" stroke="black" stroke-linecap="round" stroke-linejoin="round"/>
</svg>
